<?xml version="1.0" standalone="no"?>
<!DOCTYPE svg PUBLIC "-//W3C//DTD SVG 20010904//EN"
 "http://www.w3.org/TR/2001/REC-SVG-20010904/DTD/svg10.dtd">
<svg version="1.0" xmlns="http://www.w3.org/2000/svg"
 width="166.000000pt" height="166.000000pt" viewBox="0 0 166.000000 166.000000"
 preserveAspectRatio="xMidYMid meet">
<metadata>
Created by potrace 1.11, written by Peter Selinger 2001-2013
</metadata>
<g transform="translate(0.000000,166.000000) scale(0.100000,-0.100000)"
fill="#000000" stroke="none">
<path d="M705 1476 c-81 -35 -119 -132 -113 -289 4 -138 21 -170 170 -324 149
-153 169 -193 176 -338 6 -127 -10 -207 -45 -235 -31 -24 -90 -26 -122 -4 -44
31 -54 76 -59 257 l-4 167 -55 0 -55 0 4 -177 c4 -157 7 -184 27 -228 42 -94
90 -125 193 -125 151 1 213 75 225 270 11 198 -32 304 -195 473 -138 142 -152
168 -152 284 1 134 34 193 109 193 79 0 99 -43 108 -230 l6 -140 55 0 55 0 -6
143 c-4 78 -11 158 -17 178 -15 54 -51 102 -90 121 -43 22 -170 24 -215 4z"/>
</g>
</svg>
