<?xml version="1.0" standalone="no"?>
<!DOCTYPE svg PUBLIC "-//W3C//DTD SVG 20010904//EN"
 "http://www.w3.org/TR/2001/REC-SVG-20010904/DTD/svg10.dtd">
<svg version="1.0" xmlns="http://www.w3.org/2000/svg"
 width="300.000000pt" height="300.000000pt" viewBox="0 0 300.000000 300.000000"
 preserveAspectRatio="xMidYMid meet">
<metadata>
Created by potrace 1.11, written by Peter Selinger 2001-2013
</metadata>
<g transform="translate(0.000000,300.000000) scale(0.100000,-0.100000)"
fill="#000000" stroke="none">
<path d="M1047 2993 c-9 -9 -9 -1938 0 -1947 4 -4 110 96 235 221 l228 228
225 -225 225 -225 0 978 0 977 -453 0 c-250 0 -457 -3 -460 -7z"/>
<path d="M2040 1612 l0 -647 345 -345 345 -345 0 993 0 992 -345 0 -345 0 0
-648z"/>
<path d="M280 988 l0 -723 345 345 345 345 0 377 0 378 -345 0 -345 0 0 -722z"/>
<path d="M1275 1140 l-230 -230 0 -453 0 -452 458 -3 457 -2 0 462 0 463 -223
223 c-122 122 -224 222 -227 222 -3 0 -109 -104 -235 -230z"/>
<path d="M2041 423 l-1 -423 345 0 345 0 0 73 0 72 -345 350 -344 350 0 -422z"/>
<path d="M622 487 l-342 -342 0 -73 0 -72 345 0 345 0 0 415 c0 228 -1 415 -3
415 -1 0 -156 -154 -345 -343z"/>
</g>
</svg>
